Format : AVI
Format/Info : Audio Video Interleave
File size : 1.64 GiB
Duration : 2h 5mn
Overall bit rate : 1 872 Kbps
Writing application : VirtualDubMod 1.5.10.3 | www.virtualdub-fr.org || (build 2550/release)
Writing library : VirtualDubMod build 2550/release

Video
ID : 0
Format : MPEG-4 Visual
Format profile : Advanced Simple@L5
Format settings, BVOP : Yes
Format settings, QPel : No
Format settings, GMC : No warppoints
Format settings, Matrix : Custom
Codec ID : XVID
Codec ID/Hint : XviD
Duration : 2h 5mn
Bit rate : 1 734 Kbps
Width : 672 pixels
Height : 284 pixels
Display aspect ratio : 2.35:1
Frame rate : 25.000 fps
Color space : YUV
Chroma subsampling : 4:2:0
Bit depth : 8 bits
Scan type : Progressive
Bits/(Pixel*Frame) : 0.363
Stream size : 1.52 GiB (93%)
Writing library : XviD 1.2.1 (UTC 2008-12-04)

Audio
ID : 1
Format : MPEG Audio
Format version : Version 1
Format profile : Layer 3
Codec ID : 55
Codec ID/Hint : MP3
Duration : 2h 5mn
Bit rate mode : Constant
Bit rate : 128 Kbps
Channel(s) : 2 channels
Sampling rate : 44.1 KHz
Stream size : 115 MiB (7%)
Alignment : Split accross interleaves
Interleave, duration : 40 ms (1.00 video frame)
Interleave, preload duration : 500 ms
 
http://www.imdb.com/title/tt1023114/


Users: 7.6/10 (2,022 votes) 33 reviews | Critics: 80 reviews Metascore: 66/100 (based on 33 reviews from Metacritic.com)

Siberian gulag escapees walk 4000 miles overland to freedom in India.
Director:
Peter Weir
Writers:
Keith R. Clarke (screenplay), Slavomir Rawicz (novel), and 1 more credit »
Stars:
Jim Sturgess, Ed Harris and Colin Farrell 

Video Serenity - Thanks
Audio Imagine - Thanks guys

Included a sample as this is a big file and its a cam.Video wise its probs ok imo if you dont like cams though dont download.Filters wise i added abit more saturation and lowered the contrast a touch .The dark scenes are so so the light scenes are watchable...Really sellling it here :-) . Anyway download the sample and decide for yourself ....Enjoy !